<svg width="54" height="18" viewBox="0 0 54 18" fill="none" xmlns="http://www.w3.org/2000/svg">
<path d="M0.418844 10.648C0.418844 10.088 0.482844 9.54 0.610844 9.004C0.746844 8.46 0.934844 7.948 1.17484 7.468C1.41484 6.98 1.69884 6.536 2.02684 6.136C2.36284 5.728 2.72684 5.376 3.11884 5.08C3.51884 4.784 3.94284 4.556 4.39084 4.396C4.83884 4.228 5.29884 4.144 5.77084 4.144C6.32284 4.144 6.75084 4.26 7.05484 4.492C7.36684 4.724 7.52284 5.048 7.52284 5.464C7.52284 5.624 7.49884 5.788 7.45084 5.956C7.41084 6.124 7.34684 6.292 7.25884 6.46C7.17884 6.62 7.08284 6.776 6.97084 6.928C6.85884 7.08 6.73484 7.212 6.59884 7.324C6.39084 7.292 6.21084 7.2 6.05884 7.048C5.90684 6.888 5.81084 6.704 5.77084 6.496C6.05084 6.264 6.27084 6.024 6.43084 5.776C6.59884 5.52 6.68284 5.288 6.68284 5.08C6.68284 4.728 6.46284 4.552 6.02284 4.552C5.83884 4.552 5.64684 4.592 5.44684 4.672C5.25484 4.744 5.05884 4.848 4.85884 4.984C4.65884 5.12 4.46284 5.284 4.27084 5.476C4.08684 5.668 3.91484 5.88 3.75484 6.112C2.64284 7.712 2.08684 9.348 2.08684 11.02C2.08684 11.612 2.17884 12.088 2.36284 12.448C2.54684 12.808 2.79084 13.02 3.09484 13.084C3.43884 13.004 3.87484 12.784 4.40284 12.424C4.93084 12.064 5.50684 11.596 6.13084 11.02C6.21084 11.1 6.25884 11.184 6.27484 11.272C6.04284 11.576 5.80284 11.868 5.55484 12.148C5.30684 12.428 5.05884 12.684 4.81084 12.916C4.57084 13.148 4.33084 13.352 4.09084 13.528C3.85884 13.704 3.64284 13.84 3.44284 13.936C2.45084 13.92 1.69884 13.636 1.18684 13.084C0.674844 12.532 0.418844 11.72 0.418844 10.648ZM8.47844 13.42C8.02244 13.372 7.65844 13.172 7.38644 12.82C7.11444 12.468 6.97844 12.02 6.97844 11.476C6.97844 11.156 7.02644 10.824 7.12244 10.48C7.21844 10.136 7.35444 9.804 7.53044 9.484C7.70644 9.156 7.91444 8.848 8.15444 8.56C8.39444 8.272 8.65444 8.024 8.93444 7.816C9.37444 7.488 9.78644 7.324 10.1704 7.324C10.4264 7.46 10.6784 7.744 10.9264 8.176C10.9664 8.176 11.0024 8.176 11.0344 8.176C11.0664 8.168 11.1024 8.164 11.1424 8.164C11.5664 8.164 11.7784 8.54 11.7784 9.292C11.7784 9.796 11.6944 10.276 11.5264 10.732C11.3664 11.18 11.1384 11.588 10.8424 11.956C10.5544 12.324 10.2064 12.636 9.79844 12.892C9.39844 13.14 8.95844 13.316 8.47844 13.42ZM9.09044 9.64C8.95444 9.824 8.82644 10.024 8.70644 10.24C8.58644 10.456 8.48244 10.676 8.39444 10.9C8.30644 11.116 8.23844 11.328 8.19044 11.536C8.14244 11.736 8.11844 11.916 8.11844 12.076C8.11844 12.268 8.15044 12.452 8.21444 12.628C8.27844 12.804 8.35044 12.904 8.43044 12.928C8.79044 12.848 9.11844 12.7 9.41444 12.484C9.71844 12.26 9.97844 11.984 10.1944 11.656C10.4184 11.328 10.5904 10.956 10.7104 10.54C10.8384 10.124 10.9024 9.68 10.9024 9.208C10.9024 9 10.8904 8.836 10.8664 8.716C10.8424 8.596 10.8024 8.492 10.7464 8.404C10.3944 8.508 10.0784 8.676 9.79844 8.908C9.52644 9.14 9.29044 9.384 9.09044 9.64ZM19.2953 9.316C19.1673 9.324 19.0113 9.408 18.8273 9.568C18.6433 9.72 18.4433 9.92 18.2273 10.168C18.0193 10.408 17.7993 10.676 17.5673 10.972C17.3433 11.268 17.1233 11.564 16.9073 11.86C16.6993 12.148 16.5033 12.42 16.3193 12.676C16.1353 12.932 15.9793 13.136 15.8513 13.288C15.6753 13.216 15.5233 13.112 15.3953 12.976C15.2673 12.832 15.1753 12.656 15.1193 12.448C15.1593 12.2 15.2153 11.944 15.2873 11.68C15.3593 11.408 15.4513 11.128 15.5633 10.84C15.6833 10.552 15.8273 10.252 15.9953 9.94C16.1713 9.62 16.3833 9.284 16.6313 8.932C16.5113 8.94 16.3473 9.028 16.1393 9.196C15.9313 9.356 15.7073 9.568 15.4673 9.832C15.2273 10.088 14.9793 10.38 14.7233 10.708C14.4673 11.028 14.2273 11.344 14.0033 11.656C13.7073 12.072 13.4593 12.436 13.2593 12.748C13.0673 13.06 12.9273 13.244 12.8393 13.3C12.6313 13.148 12.4873 12.984 12.4073 12.808C12.3273 12.632 12.2673 12.436 12.2273 12.22C12.2353 12.028 12.2633 11.788 12.3113 11.5C12.3673 11.212 12.4433 10.916 12.5393 10.612C12.7233 10.028 12.9593 9.448 13.2473 8.872C13.5433 8.296 13.8273 7.768 14.0993 7.288C14.3233 7.336 14.5233 7.412 14.6993 7.516C14.8833 7.62 15.0753 7.772 15.2753 7.972C15.1953 8.22 15.0713 8.484 14.9033 8.764C14.7353 9.036 14.5593 9.324 14.3753 9.628C14.1913 9.932 14.0233 10.244 13.8713 10.564C13.7193 10.884 13.6193 11.208 13.5713 11.536C13.7953 11.216 14.0593 10.848 14.3633 10.432C14.6753 10.016 14.9913 9.624 15.3113 9.256C15.6393 8.888 15.9633 8.576 16.2833 8.32C16.6033 8.064 16.8913 7.936 17.1473 7.936C17.2433 7.936 17.3473 7.952 17.4593 7.984C17.5713 8.016 17.6753 8.056 17.7713 8.104C17.8673 8.152 17.9473 8.2 18.0113 8.248C18.0753 8.288 18.1113 8.32 18.1193 8.344C18.0793 8.504 17.9833 8.724 17.8313 9.004C17.6873 9.276 17.5313 9.564 17.3633 9.868C17.1953 10.172 17.0393 10.468 16.8953 10.756C16.7513 11.036 16.6673 11.26 16.6433 11.428C17.0353 10.892 17.4033 10.408 17.7473 9.976C18.0913 9.536 18.4153 9.16 18.7193 8.848C19.0233 8.536 19.3033 8.296 19.5593 8.128C19.8233 7.96 20.0713 7.876 20.3033 7.876C20.4633 7.876 20.6113 7.92 20.7473 8.008C20.8913 8.088 20.9913 8.208 21.0473 8.368C20.9753 8.608 20.8553 8.896 20.6873 9.232C20.5273 9.568 20.3633 9.924 20.1953 10.3C20.0273 10.668 19.8753 11.032 19.7393 11.392C19.6113 11.752 19.5473 12.076 19.5473 12.364C19.5473 12.532 19.5713 12.644 19.6193 12.7C19.6673 12.748 19.7353 12.772 19.8233 12.772C19.9193 12.772 20.0073 12.756 20.0873 12.724C20.1753 12.684 20.2393 12.664 20.2793 12.664C20.3273 12.696 20.3553 12.736 20.3633 12.784C20.3713 12.832 20.3753 12.876 20.3753 12.916C20.2153 13.044 20.0513 13.148 19.8833 13.228C19.7153 13.316 19.5273 13.36 19.3193 13.36C19.1273 13.36 18.9673 13.328 18.8393 13.264C18.7193 13.2 18.6193 13.112 18.5393 13C18.4593 12.888 18.4033 12.76 18.3713 12.616C18.3393 12.472 18.3233 12.316 18.3233 12.148C18.3233 11.876 18.3593 11.608 18.4313 11.344C18.5033 11.072 18.5873 10.816 18.6833 10.576C18.7873 10.328 18.8953 10.1 19.0073 9.892C19.1193 9.676 19.2153 9.484 19.2953 9.316ZM22.1365 16.468C21.9365 16.388 21.8165 16.236 21.7765 16.012C21.7445 15.796 21.6085 15.62 21.3685 15.484C21.4325 15.076 21.5045 14.664 21.5845 14.248C21.6645 13.832 21.7645 13.36 21.8845 12.832C22.0125 12.296 22.1685 11.676 22.3525 10.972C22.5445 10.26 22.7845 9.4 23.0725 8.392C22.8085 8.392 22.6005 8.396 22.4485 8.404C22.2965 8.412 22.1485 8.428 22.0045 8.452C21.9725 8.42 21.9445 8.376 21.9205 8.32C21.9045 8.264 21.8965 8.212 21.8965 8.164C21.9765 8.132 22.1405 8.092 22.3885 8.044C22.6365 7.988 22.9085 7.94 23.2045 7.9C23.3965 7.292 23.6165 6.748 23.8645 6.268C24.1125 5.78 24.3805 5.364 24.6685 5.02C24.9565 4.676 25.2605 4.412 25.5805 4.228C25.9005 4.044 26.2245 3.952 26.5525 3.952C26.6485 3.952 26.7405 3.96 26.8285 3.976C26.9165 3.984 26.9845 3.988 27.0325 3.988C27.1045 3.932 27.2005 3.884 27.3205 3.844C27.4405 3.796 27.5445 3.772 27.6325 3.772C27.7285 3.772 27.8525 3.824 28.0045 3.928C27.9405 4.04 27.8725 4.192 27.8005 4.384C27.7285 4.576 27.6685 4.764 27.6205 4.948C27.4205 5.54 27.2085 5.924 26.9845 6.1C26.8965 6.1 26.8485 5.984 26.8405 5.752C26.8325 5.584 26.8085 5.42 26.7685 5.26C26.7365 5.188 26.7125 5.124 26.6965 5.068C26.6885 5.012 26.6845 4.94 26.6845 4.852C26.6845 4.804 26.6885 4.748 26.6965 4.684C26.7045 4.612 26.7205 4.496 26.7445 4.336C26.6085 4.336 26.4565 4.42 26.2885 4.588C26.1285 4.756 25.9565 4.996 25.7725 5.308C25.5965 5.612 25.4165 5.976 25.2325 6.4C25.0485 6.824 24.8725 7.292 24.7045 7.804L25.7125 7.768C25.7525 7.808 25.7845 7.9 25.8085 8.044C25.8405 8.18 25.8605 8.324 25.8685 8.476L24.5485 8.404C24.2445 9.308 23.9605 10.172 23.6965 10.996C23.4325 11.82 23.1965 12.58 22.9885 13.276C22.7805 13.972 22.6005 14.592 22.4485 15.136C22.3045 15.688 22.2005 16.132 22.1365 16.468ZM30.0901 11.14C29.9061 11.724 29.7221 12.256 29.5381 12.736C29.3541 13.216 29.1581 13.656 28.9501 14.056C28.7421 14.464 28.5181 14.836 28.2781 15.172C28.0381 15.516 27.7741 15.84 27.4861 16.144C27.1181 16.528 26.7381 16.82 26.3461 17.02C25.9541 17.228 25.5621 17.332 25.1701 17.332C24.9701 17.332 24.7701 17.308 24.5701 17.26C24.3781 17.22 24.1981 17.16 24.0301 17.08C23.8541 17.008 23.7021 16.92 23.5741 16.816C23.4381 16.72 23.3421 16.616 23.2861 16.504C23.2861 16.408 23.3421 16.324 23.4541 16.252C23.5501 16.34 23.6301 16.408 23.6941 16.456C23.7581 16.504 23.8221 16.544 23.8861 16.576C23.9421 16.608 24.0061 16.628 24.0781 16.636C24.1421 16.644 24.2181 16.648 24.3061 16.648C24.7621 16.648 25.2061 16.512 25.6381 16.24C26.0781 15.976 26.4901 15.596 26.8741 15.1C27.2661 14.612 27.6221 14.016 27.9421 13.312C28.2621 12.616 28.5341 11.836 28.7581 10.972C28.6541 11.132 28.5261 11.328 28.3741 11.56C28.2221 11.792 28.0541 12.024 27.8701 12.256C27.6861 12.48 27.4941 12.684 27.2941 12.868C27.1021 13.052 26.9141 13.176 26.7301 13.24C26.6021 13.232 26.4661 13.204 26.3221 13.156C26.1861 13.116 26.0541 13.056 25.9261 12.976C25.8061 12.896 25.6981 12.8 25.6021 12.688C25.5061 12.576 25.4421 12.448 25.4101 12.304C25.4101 12.072 25.4181 11.888 25.4341 11.752C25.4501 11.608 25.4781 11.452 25.5181 11.284C25.5901 10.98 25.6941 10.636 25.8301 10.252C25.9741 9.868 26.1381 9.492 26.3221 9.124C26.5141 8.748 26.7221 8.4 26.9461 8.08C27.1781 7.752 27.4181 7.496 27.6661 7.312C27.7301 7.312 27.8101 7.32 27.9061 7.336C28.0021 7.344 28.1021 7.364 28.2061 7.396C28.3101 7.428 28.4101 7.468 28.5061 7.516C28.6021 7.556 28.6861 7.612 28.7581 7.684C28.6701 7.764 28.4781 8.032 28.1821 8.488C27.8861 8.944 27.5581 9.6 27.1981 10.456C27.1581 10.544 27.1101 10.672 27.0541 10.84C26.9981 11.008 26.9421 11.184 26.8861 11.368C26.8381 11.552 26.7941 11.732 26.7541 11.908C26.7141 12.084 26.6941 12.224 26.6941 12.328C26.6941 12.392 26.7021 12.44 26.7181 12.472C26.7421 12.504 26.7621 12.528 26.7781 12.544C26.9221 12.52 27.1141 12.404 27.3541 12.196C27.5941 11.98 27.8661 11.648 28.1701 11.2C28.3621 10.912 28.5381 10.628 28.6981 10.348C28.8581 10.06 29.0141 9.772 29.1661 9.484C29.3261 9.196 29.4901 8.9 29.6581 8.596C29.8261 8.292 30.0061 7.98 30.1981 7.66C30.3021 7.66 30.4141 7.672 30.5341 7.696C30.6541 7.72 30.7701 7.752 30.8821 7.792C30.9941 7.824 31.0901 7.864 31.1701 7.912C31.2581 7.952 31.3221 7.996 31.3621 8.044C31.1141 8.572 30.8821 9.088 30.6661 9.592C30.4501 10.096 30.2581 10.612 30.0901 11.14Z" fill="#222222"/>
<path d="M32.4024 13.912C32.0184 13.8 31.7504 13.688 31.5984 13.576C31.4544 13.464 31.3824 13.324 31.3824 13.156C31.3824 13.028 31.4184 12.848 31.4904 12.616C31.5624 12.384 31.6664 12.112 31.8024 11.8C31.9464 11.48 32.1144 11.128 32.3064 10.744C32.5064 10.36 32.7304 9.948 32.9784 9.508C32.7704 9.5 32.5824 9.496 32.4144 9.496C32.2544 9.488 32.1224 9.484 32.0184 9.484C32.0664 9.364 32.2024 9.26 32.4264 9.172C32.6504 9.084 32.9464 9.008 33.3144 8.944C33.6264 8.424 33.9584 7.928 34.3104 7.456C34.6704 6.984 35.0304 6.552 35.3904 6.16C35.7504 5.76 36.1104 5.412 36.4704 5.116C36.8304 4.812 37.1744 4.572 37.5024 4.396C37.5104 4.34 37.5144 4.292 37.5144 4.252C37.5224 4.212 37.5264 4.184 37.5264 4.168C37.6384 4.168 37.7864 4.196 37.9704 4.252C38.1624 4.308 38.3464 4.376 38.5224 4.456C38.7064 4.536 38.8664 4.62 39.0024 4.708C39.1464 4.788 39.2264 4.856 39.2424 4.912C38.9784 5.376 38.7184 6.072 38.4624 7C38.2064 7.92 37.9944 9.024 37.8264 10.312C37.7864 10.632 37.7504 10.996 37.7184 11.404C37.6944 11.812 37.6824 12.268 37.6824 12.772C37.6824 12.948 37.6824 13.128 37.6824 13.312C37.6824 13.496 37.6904 13.688 37.7064 13.888C37.6904 13.896 37.6744 13.9 37.6584 13.9C37.6424 13.9 37.6104 13.9 37.5624 13.9C37.4504 13.9 37.3184 13.88 37.1664 13.84C37.0224 13.808 36.8784 13.764 36.7344 13.708C36.5984 13.66 36.4784 13.604 36.3744 13.54C36.2784 13.476 36.2184 13.42 36.1944 13.372C36.1864 13.268 36.1824 13.164 36.1824 13.06C36.1824 12.964 36.1824 12.86 36.1824 12.748C36.1824 12.252 36.1984 11.748 36.2304 11.236C36.2704 10.724 36.3344 10.196 36.4224 9.652C36.3104 9.644 36.1624 9.636 35.9784 9.628C35.7944 9.612 35.5864 9.6 35.3544 9.592C35.1304 9.584 34.8864 9.576 34.6224 9.568C34.3664 9.552 34.1144 9.54 33.8664 9.532C33.6744 9.892 33.4944 10.252 33.3264 10.612C33.1584 10.964 33.0144 11.32 32.8944 11.68C32.7584 12.064 32.6464 12.448 32.5584 12.832C32.4784 13.216 32.4264 13.576 32.4024 13.912ZM37.0344 6.7C37.0664 6.588 37.1024 6.436 37.1424 6.244C37.1904 6.044 37.2344 5.836 37.2744 5.62C37.0744 5.692 36.8504 5.824 36.6024 6.016C36.3624 6.208 36.1104 6.448 35.8464 6.736C35.5904 7.016 35.3264 7.336 35.0544 7.696C34.7904 8.048 34.5344 8.424 34.2864 8.824C34.9584 8.768 35.7224 8.732 36.5784 8.716C36.6424 8.38 36.7104 8.048 36.7824 7.72C36.8624 7.384 36.9464 7.044 37.0344 6.7ZM38.8975 12.76C38.9375 12.528 39.0055 12.224 39.1015 11.848C39.2055 11.464 39.3255 11.06 39.4615 10.636C39.5975 10.204 39.7415 9.772 39.8935 9.34C40.0455 8.908 40.1935 8.52 40.3375 8.176C40.4415 7.928 40.5335 7.736 40.6135 7.6C40.6935 7.456 40.7815 7.336 40.8775 7.24C40.9895 7.256 41.1055 7.284 41.2255 7.324C41.3455 7.364 41.4615 7.412 41.5735 7.468C41.6855 7.524 41.7855 7.584 41.8735 7.648C41.9615 7.704 42.0295 7.76 42.0775 7.816C41.8615 8.072 41.6695 8.364 41.5015 8.692C41.3415 9.02 41.1775 9.44 41.0095 9.952C41.4415 9.568 41.8215 9.2 42.1495 8.848C42.4855 8.496 42.7975 8.104 43.0855 7.672C43.1335 7.632 43.2175 7.612 43.3375 7.612C43.4495 7.612 43.5575 7.632 43.6615 7.672C43.7655 7.704 43.8375 7.752 43.8775 7.816C43.7335 8.2 43.6615 8.58 43.6615 8.956C43.6615 9.308 43.7135 9.572 43.8175 9.748C43.8095 9.796 43.7535 9.888 43.6495 10.024C43.5535 10.16 43.4455 10.288 43.3255 10.408C43.1095 10.296 42.9175 10.144 42.7495 9.952C42.5815 9.752 42.4575 9.536 42.3775 9.304C42.0015 9.568 41.6815 9.828 41.4175 10.084C41.1535 10.332 40.9255 10.612 40.7335 10.924C40.5495 11.228 40.3895 11.58 40.2535 11.98C40.1255 12.38 40.0015 12.856 39.8815 13.408C39.8095 13.4 39.7215 13.372 39.6175 13.324C39.5215 13.284 39.4215 13.232 39.3175 13.168C39.2215 13.104 39.1335 13.036 39.0535 12.964C38.9735 12.892 38.9215 12.824 38.8975 12.76ZM48.3213 8.032C48.2893 8.528 48.2013 8.956 48.0573 9.316C47.9133 9.668 47.7053 9.98 47.4333 10.252C47.1693 10.516 46.8453 10.756 46.4613 10.972C46.0773 11.188 45.6293 11.396 45.1173 11.596C45.1173 11.644 45.1133 11.696 45.1053 11.752C45.1053 11.8 45.1053 11.852 45.1053 11.908C45.1053 12.012 45.1133 12.12 45.1293 12.232C45.1453 12.344 45.1733 12.448 45.2133 12.544C45.2533 12.64 45.3093 12.72 45.3813 12.784C45.4533 12.84 45.5453 12.868 45.6573 12.868C45.8733 12.868 46.0853 12.82 46.2933 12.724C46.5013 12.628 46.6973 12.512 46.8813 12.376C47.0733 12.232 47.2493 12.08 47.4093 11.92C47.5773 11.752 47.7253 11.6 47.8533 11.464C47.9333 11.536 48.0013 11.604 48.0573 11.668C47.6973 12.148 47.3013 12.548 46.8693 12.868C46.4453 13.18 46.0413 13.38 45.6573 13.468C45.1053 13.404 44.6733 13.204 44.3613 12.868C44.0573 12.524 43.9053 12.112 43.9053 11.632C43.9053 11.304 43.9493 10.972 44.0373 10.636C44.1333 10.292 44.2613 9.964 44.4213 9.652C44.5893 9.332 44.7813 9.032 44.9973 8.752C45.2213 8.472 45.4573 8.228 45.7053 8.02C45.9613 7.812 46.2213 7.648 46.4853 7.528C46.7573 7.408 47.0253 7.348 47.2893 7.348C47.6573 7.396 48.0013 7.624 48.3213 8.032ZM47.4933 8.428C47.2773 8.46 47.0533 8.548 46.8213 8.692C46.5893 8.836 46.3693 9.028 46.1613 9.268C45.9613 9.508 45.7773 9.788 45.6093 10.108C45.4413 10.428 45.3093 10.772 45.2133 11.14C45.8533 10.82 46.3853 10.428 46.8093 9.964C47.2333 9.492 47.4613 8.98 47.4933 8.428ZM53.0169 8.152C53.0969 8.152 53.1889 8.168 53.2929 8.2C53.4049 8.224 53.5049 8.26 53.5929 8.308C53.6809 8.348 53.7529 8.392 53.8089 8.44C53.8729 8.488 53.9049 8.532 53.9049 8.572C53.7449 8.908 53.5969 9.248 53.4609 9.592C53.3249 9.928 53.2089 10.252 53.1129 10.564C53.0169 10.876 52.9409 11.168 52.8849 11.44C52.8369 11.712 52.8129 11.948 52.8129 12.148C52.8129 12.372 52.8369 12.56 52.8849 12.712C52.9329 12.856 53.0129 12.96 53.1249 13.024C53.0289 13.088 52.9049 13.14 52.7529 13.18C52.6009 13.22 52.4649 13.24 52.3449 13.24C51.9129 13.24 51.6969 12.944 51.6969 12.352C51.6969 11.896 51.8489 11.272 52.1529 10.48C51.9929 10.848 51.8089 11.196 51.6009 11.524C51.3929 11.844 51.1809 12.128 50.9649 12.376C50.7489 12.624 50.5289 12.828 50.3049 12.988C50.0889 13.14 49.8889 13.232 49.7049 13.264C49.4089 13.248 49.1689 13.108 48.9849 12.844C48.8009 12.572 48.7089 12.228 48.7089 11.812C48.7089 11.364 48.8049 10.892 48.9969 10.396C49.1889 9.9 49.4329 9.44 49.7289 9.016C50.0329 8.592 50.3609 8.24 50.7129 7.96C51.0649 7.672 51.4049 7.52 51.7329 7.504C51.8129 7.528 51.9009 7.576 51.9969 7.648C52.1009 7.72 52.1969 7.804 52.2849 7.9C52.3809 7.996 52.4609 8.096 52.5249 8.2C52.5889 8.296 52.6249 8.38 52.6329 8.452C52.3129 8.5 51.9809 8.656 51.6369 8.92C51.3009 9.184 50.9929 9.504 50.7129 9.88C50.4409 10.248 50.2169 10.644 50.0409 11.068C49.8649 11.492 49.7769 11.888 49.7769 12.256C49.7769 12.408 49.8329 12.504 49.9449 12.544C50.1769 12.496 50.4449 12.3 50.7489 11.956C51.0529 11.604 51.4209 11.064 51.8529 10.336C51.9329 10.192 52.0209 10.032 52.1169 9.856C52.2209 9.68 52.3249 9.496 52.4289 9.304C52.5329 9.112 52.6329 8.92 52.7289 8.728C52.8329 8.528 52.9289 8.336 53.0169 8.152Z" fill="#AB7B60"/>
</svg>
